<svg width="151" height="34" viewBox="0 0 151 34" fill="none" xmlns="http://www.w3.org/2000/svg">
<path d="M21.5839 2.04333H29.1559L31.9579 17.6533L35.0359 2.04333H42.4979L36.7566 32.224H34.4606L31.8479 20.3093L29.0459 32.224H26.8599L21.5839 2.04333Z" fill="currentColor"/>
<path d="M47.2431 2.04333H58.6044V6.518H51.4884V13.8433H57.7551V18.318H51.4884V27.7493H58.6044V32.224H47.2431V2.04333Z" fill="currentColor"/>
<path d="M63.5359 2.04333H67.8772L74.8052 32.224H70.3852L69.3499 27.6393H62.5132L61.4779 32.224H57.0579L63.5359 2.04333ZM68.6186 23.334L65.9406 8.944L63.2626 23.334H68.6186Z" fill="currentColor"/>
<path d="M78.6918 2.04333H90.0531V6.518H82.9371V13.8433H89.2038V18.318H82.9371V27.7493H90.0531V32.224H78.6918V2.04333Z" fill="currentColor"/>
<path d="M102.348 17.13L98.8833 2.04333H103.58L105.321 9.92467L107.172 2.04333H111.758L108.293 17.13V32.224H102.348V17.13Z" fill="currentColor"/>
<path d="M123.659 17.13L120.194 2.04333H124.891L126.632 9.92467L128.483 2.04333H133.069L129.604 17.13V32.224H123.659V17.13Z" fill="currentColor"/>
<path d="M150.311 17.2987C150.311 25.8627 144.38 32.8807 135.592 32.8807C126.804 32.8807 120.873 25.8627 120.873 17.2987C120.873 8.73467 126.804 1.71667 135.592 1.71667C144.38 1.71667 150.311 8.73467 150.311 17.2987ZM145.897 17.2987C145.897 11.1687 141.284 6.222 135.592 6.222C129.9 6.222 125.287 11.1687 125.287 17.2987C125.287 23.4287 129.9 28.3753 135.592 28.3753C141.284 28.3753 145.897 23.4287 145.897 17.2987Z" fill="currentColor"/>
<path d="M0 17.2987C0 25.8627 5.93133 32.8807 14.7193 32.8807C23.5073 32.8807 29.4386 25.8627 29.4386 17.2987C29.4386 8.73467 23.5073 1.71667 14.7193 1.71667C5.93133 1.71667 0 8.73467 0 17.2987ZM25.0246 17.2987C25.0246 11.1687 20.412 6.222 14.7193 6.222C9.02667 6.222 4.414 11.1687 4.414 17.2987C4.414 23.4287 9.02667 28.3753 14.7193 28.3753C20.412 28.3753 25.0246 23.4287 25.0246 17.2987Z" fill="currentColor"/>
</svg>
