<svg width="258" height="80" viewBox="0 0 258 80" fill="none" xmlns="http://www.w3.org/2000/svg">
<path d="M76.9999 79.25C76.9999 79.25 102.25 79.25 102.25 40C102.25 0.75 77 0.75 77 0.75L77 40.25L0.249969 40.25L0.249969 79.25L76.9999 79.25Z" fill="#C5A375"/>
<path d="M102.25 0.75C102.25 0.75 127.5 0.75 127.5 40C127.5 79.25 102.25 79.25 102.25 79.25L102.25 0.75Z" fill="#292D32"/>
<path d="M127.5 79.25L152.5 79.25L152.5 0.75L127.5 0.75L127.5 40L212.75 40L212.75 0.75L237.75 0.75L237.75 79.25L212.75 79.25L212.75 40.5L127.5 40.5L127.5 79.25Z" fill="#C5A375"/>
<path d="M237.75 79.25L257.75 79.25V0.75H237.75V79.25Z" fill="#C5A375"/>
</svg>
