<svg width="150" height="30" viewBox="0 0 150 30" fill="none" xmlns="http://www.w3.org/2000/svg">
<path d="M11.3333 24.3333C10.597 24.3333 9.94434 24.0524 9.37519 23.4915C8.80604 22.9306 8.52148 22.238 8.52148 21.4137V8.58625C8.52148 7.76195 8.80604 7.06938 9.37519 6.5085C9.94434 5.94762 10.597 5.66667 11.3333 5.66667H22.375V8.87931H11.75V13.8793H21.5417V17.092H11.75V21.1207H22.375V24.3333H11.3333ZM29.2083 24.3333V5.66667H32.421V24.3333H29.2083ZM42.5 24.3333V11.2069L38.2083 24.3333H35.25L30.9583 11.2069V24.3333H27.75V5.66667H31.8333L36.875 18.046L41.9167 5.66667H45.9167V24.3333H42.5ZM58.0515 24.3333C56.6358 24.3333 55.421 23.8649 54.4071 22.928C53.3931 21.9912 52.8861 20.8362 52.8861 19.4626C52.8861 18.0891 53.3931 16.934 54.4071 15.9971C55.421 15.0603 56.6358 14.5919 58.0515 14.5919C59.4673 14.5919 60.6821 15.0603 61.696 15.9971C62.7099 16.934 63.2169 18.0891 63.2169 19.4626C63.2169 20.8362 62.7099 21.9912 61.696 22.928C60.6821 23.8649 59.4673 24.3333 58.0515 24.3333ZM58.0515 21.4137C58.8239 21.4137 59.4673 21.1465 59.9815 20.612C60.4957 20.0775 60.7528 19.3448 60.7528 18.4137C60.7528 17.4827 60.4957 16.75 59.9815 16.2155C59.4673 15.681 58.8239 15.4137 58.0515 15.4137C57.2791 15.4137 56.6358 15.681 56.1216 16.2155C55.6074 16.75 55.3503 17.4827 55.3503 18.4137C55.3503 19.3448 55.6074 20.0775 56.1216 20.612C56.6358 21.1465 57.2791 21.4137 58.0515 21.4137ZM66.4167 24V5.33333H78V8.16667H69.4167V13.5H77V16.3333H69.4167V21.1667H78V24H66.4167Z" fill="currentColor"/>
<path d="M85.4167 24.3333V5.66667H99.5833C100.812 5.66667 101.812 5.92381 102.583 6.4381C103.354 6.95238 103.739 7.64286 103.739 8.50952C103.739 9.21429 103.497 9.80952 103.014 10.2952C102.53 10.781 101.849 11.1333 100.972 11.3524L104.583 17.9619V18.1667H100.5L97.2083 12H90.0833V24.3333H85.4167ZM90.0833 9.33333H99C99.5 9.33333 99.8958 9.21905 100.187 8.98095C100.479 8.74286 100.625 8.45238 100.625 8.10952C100.625 7.82857 100.495 7.57619 100.229 7.35238C99.9633 7.12857 99.5417 7.01667 98.9618 7.01667H90.0833V9.33333Z" fill="currentColor"/>
<path d="M110.511 24.3333L106.677 15.1667H105.427L109.26 24.3333H110.511ZM118.885 24.3333L115.052 15.1667H113.802L117.635 24.3333H118.885ZM121.333 5.66667V8.66667L112.552 24.3333H108.865L118.104 7.58333V5.66667H121.333Z" fill="currentColor"/>
<path d="M130.917 24.3333L123.833 5.66667H128.833L132.333 17.8333L135.833 5.66667H140.833L133.75 24.3333H130.917Z" fill="currentColor"/>
</svg>
