<?xml version="1.0" encoding="UTF-8"?><svg id="a" xmlns="http://www.w3.org/2000/svg" width="180.71" height="230.15" viewBox="0 0 180.71 230.15"><path d="M86.88,186.49c-9.19-.26-17.43-2.08-25.42-4.92-.96-.34-1.61-2.84-1.62-4.34-.11-18.7-.07-37.41-.07-56.11,0-3.95-1.95-5.92-5.86-5.93-6.48,0-12.97-.01-19.45.01-1.34,0-2.68.15-4.55.26.38,1.67.52,3,.99,4.2,3.22,8.21,7.66,15.7,13.95,21.93,2.09,2.07,2.41,3.53.46,5.9-4.1,4.99-7.91,10.23-12.06,15.65-1.11-.84-2.01-1.43-2.81-2.14C3.09,136.94-7.17,97.34,5.17,63.01,15.9,33.15,36.08,12.87,66.6,3.46c5.44-1.68,11.22-2.28,16.84-3.35,2.32-.44,3.63.36,3.44,2.93-.06.87,0,1.74,0,2.62v180.83h0ZM59.77,35.27c-1.38.61-2.1.8-2.67,1.19-17.49,11.98-27.03,28.72-29.81,49.56-.37,2.79,1.12,3.09,3.28,3.09,8.46-.04,16.93-.11,25.39.04,2.95.05,3.89-1.02,3.86-3.92-.12-10.33-.04-20.66-.04-30.99v-18.97h-.01Z" style="fill:#f28c28; stroke-width:0px;"/><path d="M101.71.5c7.44.35,14.64.61,21.81,1.13.77.06,1.76,1.48,2.07,2.46.37,1.13.12,2.47.12,3.71v128.35c0,3.43,1.69,5.14,5.06,5.15h49.94c-1.9,2.77-3.1,4.74-4.51,6.55-18.04,23.18-41.79,36.01-70.91,39.15-2.59.28-3.9-.28-3.9-3.3.06-60.37.04-120.74.05-181.11,0-.49.12-.97.26-2.08h.01Z" style="fill:#fff; stroke-width:0px;"/><path d="M136.04,213.57c0,4.06.17,8.13-.09,12.18-.09,1.39-1.15,3.79-1.95,3.87-2.97.28-2.17-2.36-2.2-4.04-.1-5.35-.14-10.71.04-16.06.05-1.41.96-2.79,1.48-4.19,1.66.79,3.85,1.15,4.87,2.45,2.84,3.61,5.17,7.61,7.74,11.43.39.58.95,1.06,2.32,1.46,0-3.89-.16-7.78.09-11.65.08-1.3,1.06-3.47,1.9-3.61,2.68-.44,2.29,1.95,2.31,3.6.07,5.6.16,11.21,0,16.81-.04,1.35-1.04,2.68-1.6,4.01-1.42-.79-3.28-1.25-4.16-2.44-2.95-4-5.55-8.26-8.3-12.41-.39-.59-.92-1.1-1.39-1.65-.35.08-.7.16-1.05.23h-.01Z" style="fill:#fff; stroke-width:0px;"/><path d="M50.79,217.17c3.37,2.09,3.82,5.08,2.79,8.27-1.06,3.31-3.94,4.41-7.08,4.43-12.73.09-10.16,1.55-10.42-9.46-.09-3.97.05-7.95-.03-11.92-.04-2.31.81-3.5,3.26-3.37,2.11.11,4.24-.09,6.32.15,7.45.86,9.49,5.33,5.15,11.9h.01ZM43.4,226.18c3.13-.14,5.85.02,5.94-3.34.09-3.31-2.45-3.47-4.95-3.56-2.36-.08-4.07.15-4.02,3.29.05,2.79,1.07,3.9,3.03,3.61h0ZM40.51,212.82c-.48,2.9,1.22,3.36,3.54,3.23,2.41-.14,4.61-.59,4.58-3.62-.03-3.1-2.38-3.27-4.72-3.44-2.87-.21-3.79,1.22-3.41,3.83h0Z" style="fill:#f28c28; stroke-width:0px;"/><path d="M179.75,207.98c-1.52,2.9-2.81,3.01-4.94,1.96-3.69-1.83-7.73-.71-10.1,2.3-2.45,3.12-2.59,7.62-.33,10.82,2.3,3.25,7.62,3.98,10.2,1.26.68-.72,1.11-1.97,1.06-2.95-.02-.43-1.54-.76-2.35-1.19-1.05-.56-2.06-1.18-3.09-1.77,1.08-.7,2.13-1.45,3.26-2.06.39-.21.99-.11,1.48-.03,1.89.31,5.34.55,5.38,1.03.19,2.46.1,5.31-1,7.44-2.79,5.36-9.72,6.85-15.32,3.78-5.22-2.86-7.2-10.67-4.18-16.53,2.46-4.77,8.11-7.9,13.4-6.92,2.24.42,4.3,1.83,6.54,2.83v.03Z" style="fill:#fff; stroke-width:0px;"/><path d="M7.74,229.56c1.83-4.72,3.61-9.31,5.38-13.89,1.08-2.79,1.98-5.66,3.32-8.32.49-.99,1.93-1.92,3.04-2.05.91-.1,2.53.8,2.85,1.64,2.69,7.09,5.17,14.27,7.68,21.44.11.31-.06.71-.1,1.14-2.56.98-4.41.67-4.93-2.39-.52-3.03-2.54-3.57-5.21-3.4-2.66.17-5.65-.66-6.37,3.33-.52,2.86-2.51,3.35-5.65,2.5h0ZM19.77,211.77l-1.42-.03-1.33,7.55c1.58.14,3.15.29,5.33.48-1.05-3.25-1.82-5.63-2.59-8.01h.01Z" style="fill:#f28c28; stroke-width:0px;"/><path d="M126.32,229.52c-3.3,1.01-5.07.22-5.66-2.54-.55-2.52-2.06-3.46-4.57-3.24-2.7.24-5.89-.92-6.9,3.18-.62,2.54-2.31,3.71-5.53,2.62,2.48-6.36,4.81-12.72,7.45-18.94.92-2.16.77-5.67,4.57-5.41,3.43.24,3.1,3.48,3.91,5.6,2.35,6.12,4.45,12.33,6.73,18.72h0ZM115.74,211.96c-.33-.06-.65-.12-.98-.18-.86,2.38-1.71,4.75-2.75,7.63h5.99c-.84-2.79-1.55-5.12-2.26-7.45Z" style="fill:#fff; stroke-width:0px;"/><path d="M79.73,205.31c-1.75,2.91-2.97,5.18-4.42,7.28-2.89,4.19-5.07,8.49-4.4,13.86.12,1-1.03,2.92-1.9,3.12-2.26.54-2.72-1.38-2.45-3.08.9-5.81-1.88-10.33-4.83-14.86-1.14-1.76-2.11-3.63-3.26-5.62,3.35-1.95,4.96-.2,6.36,2.27,1.27,2.24,2.6,4.44,3.99,6.81,2.62-3.52,4.89-6.71,7.37-9.72.37-.45,1.77-.06,3.54-.06h0Z" style="fill:#f28c28; stroke-width:0px;"/><path d="M84.12,217.31c0-2.99-.17-5.99.09-8.96.09-1.04,1.21-2,1.86-2.99.84,1.02,2.34,2,2.41,3.07.28,4.47.27,8.97.07,13.44-.13,3.02.8,4.43,3.98,4.11,1.72-.17,3.51-.16,5.21.13.69.12,1.67,1.18,1.68,1.83,0,.63-1.03,1.81-1.65,1.84-3.85.18-7.73.26-11.57-.02-.78-.06-1.98-1.73-2.07-2.74-.27-3.22-.1-6.47-.1-9.71h.09Z" style="fill:#fff; stroke-width:0px;"/></svg>