<?xml version="1.0" encoding="UTF-8"?>
<svg version="1.1" xmlns="http://www.w3.org/2000/svg" width="1024" height="1024">
<path d="M0 0 C337.92 0 675.84 0 1024 0 C1024 337.92 1024 675.84 1024 1024 C686.08 1024 348.16 1024 0 1024 C0 686.08 0 348.16 0 0 Z " fill="#FEFEFE" transform="translate(0,0)"/>
<path d="M0 0 C0 154.77 0 309.54 0 469 C-9.14051969 468.2968831 -17.72286974 467.41322068 -26.6875 465.875 C-27.79416016 465.6996875 -28.90082031 465.524375 -30.04101562 465.34375 C-43.04176791 463.13024436 -55.08555135 459.47696695 -68 456 C-68 400.89 -68 345.78 -68 289 C-93.08 289 -118.16 289 -144 289 C-133.46355408 317.59892464 -120.9253392 340.78192981 -99 362 C-100.79239787 366.14752532 -103.53509433 369.55183664 -106.25 373.125 C-107.03540161 374.16539429 -107.03540161 374.16539429 -107.83666992 375.22680664 C-113.58628897 382.81880766 -119.42302018 390.34558125 -125.31494141 397.82763672 C-126.52005208 399.3812552 -127.70217801 400.95281171 -128.86865234 402.53564453 C-129.79025146 403.77290283 -129.79025146 403.77290283 -130.73046875 405.03515625 C-131.56227661 406.17223022 -131.56227661 406.17223022 -132.41088867 407.33227539 C-132.93529541 407.88262451 -133.45970215 408.43297363 -134 409 C-137.54943423 409 -137.88489143 408.52203294 -140.37109375 406.17578125 C-141.34695435 405.26143311 -141.34695435 405.26143311 -142.3425293 404.32861328 C-143.03386963 403.6632959 -143.72520996 402.99797852 -144.4375 402.3125 C-145.51221558 401.28745361 -145.51221558 401.28745361 -146.60864258 400.24169922 C-163.44924397 384.04180351 -177.40559365 366.31602135 -189 346 C-189.60303955 344.9486084 -189.60303955 344.9486084 -190.21826172 343.87597656 C-202.31852277 322.54957833 -209.62752139 299.88008291 -214.3125 275.875 C-214.47202148 275.059104 -214.63154297 274.24320801 -214.79589844 273.40258789 C-225.46610125 215.26411531 -211.44569569 150.53782605 -178 102 C-162.63952382 79.79255908 -144.19920844 58.58933177 -122 43 C-121.32291992 42.52159668 -120.64583984 42.04319336 -119.94824219 41.55029297 C-91.2401166 21.44687049 -59.65769054 7.86037096 -25 2 C-23.79730469 1.79503906 -22.59460938 1.59007812 -21.35546875 1.37890625 C-13.98711047 0.22136351 -7.64067755 0 0 0 Z " fill="#C79B66" transform="translate(492,217)"/>
<path d="M0 0 C19.47 0.99 38.94 1.98 59 3 C59 119.16 59 235.32 59 355 C104.21 355 149.42 355 196 355 C189.68051961 370.79870097 174.54309619 384.71277339 163 397 C162.07960938 397.98419922 162.07960938 397.98419922 161.140625 398.98828125 C156.16593732 404.14063635 150.60084524 408.55162226 145 413 C144.06800781 413.76054688 143.13601563 414.52109375 142.17578125 415.3046875 C118.70093919 434.02318901 92.31807233 447.32816291 64 457 C62.85869629 457.39010254 62.85869629 457.39010254 61.69433594 457.78808594 C52.88882381 460.72869467 43.88558417 462.81199201 34.8125 464.75 C33.87027588 464.96108398 32.92805176 465.17216797 31.95727539 465.38964844 C21.15266077 467.57697007 11.40209254 467.48172307 0 468 C0 313.56 0 159.12 0 0 Z " fill="#0F0F0F" transform="translate(530,218)"/>
<path d="M0 0 C0 45.21 0 90.42 0 137 C-27.06 137 -54.12 137 -82 137 C-82 128.53841967 -81.70648211 121.57417824 -79.9375 113.5 C-79.71416992 112.46464111 -79.49083984 111.42928223 -79.26074219 110.36254883 C-74.541701 89.41096902 -66.34460631 68.66108593 -54 51 C-52.89398438 49.35837891 -52.89398438 49.35837891 -51.765625 47.68359375 C-46.25383995 39.62069701 -40.13534202 32.40001481 -33.34277344 25.38964844 C-32.17566247 24.18179469 -31.02747961 22.95570688 -29.8828125 21.7265625 C-23.94723494 15.4954375 -8.92843313 0 0 0 Z " fill="#FEFEFE" transform="translate(424,304)"/>
<path d="M0 0 C32.325 0 32.325 0 39.0625 5.5 C42.43057912 9.84590854 42.38753558 13.94640952 42.359375 19.26171875 C41.79931339 23.52914474 40.14910247 25.15081205 37 28 C36.01 28.495 36.01 28.495 35 29 C35.928125 29.5775 36.85625 30.155 37.8125 30.75 C41.71697689 33.50610134 43.4982421 35.49472629 45 40 C45.53467398 46.30915302 44.73211245 50.7843149 41 56 C29.9104718 65.57731981 13.18802877 62 0 62 C0 41.54 0 21.08 0 0 Z " fill="#C69862" transform="translate(365,733)"/>
<path d="M0 0 C4.81978399 0.13812687 4.81978399 0.13812687 7.07080078 2.11206055 C7.56563965 2.80082275 8.06047852 3.48958496 8.5703125 4.19921875 C9.16183105 5.01616211 9.75334961 5.83310547 10.36279297 6.67480469 C14.98334915 13.44922848 19.5062407 20.2843865 23.98828125 27.15112305 C25.30494456 29.16524795 26.628618 31.17462152 27.953125 33.18359375 C28.55317352 34.11007973 28.55317352 34.11007973 29.16534424 35.05528259 C31.07260216 37.94157822 32.45310712 39.67707142 35.375 41.625 C35.36976318 40.41851807 35.36452637 39.21203613 35.35913086 37.96899414 C35.34108389 33.50936622 35.32956911 29.04974154 35.32006836 24.59008789 C35.31502744 22.65681415 35.30819481 20.72354424 35.29956055 18.7902832 C35.28748435 16.01773128 35.28176943 13.24522959 35.27734375 10.47265625 C35.27218246 9.60286636 35.26702118 8.73307648 35.26170349 7.83692932 C35.26150815 5.76594186 35.31291832 3.69505676 35.375 1.625 C35.705 1.295 36.035 0.965 36.375 0.625 C39.345 0.625 42.315 0.625 45.375 0.625 C45.375 21.085 45.375 41.545 45.375 62.625 C36.375 62.625 36.375 62.625 33.1328125 59.61328125 C32.17993063 58.30773486 31.26048774 56.97716371 30.375 55.625 C29.94670898 55.00415527 29.51841797 54.38331055 29.07714844 53.74365234 C27.76067674 51.79016191 26.50186825 49.80793787 25.25 47.8125 C24.29891199 46.32635235 23.34706061 44.840693 22.39453125 43.35546875 C20.85063973 40.93790611 19.3078967 38.51962765 17.76708984 36.10009766 C16.16869658 33.60078312 14.55466542 31.11219742 12.9375 28.625 C12.44169434 27.8414917 11.94588867 27.0579834 11.43505859 26.25073242 C10.96277832 25.52861572 10.49049805 24.80649902 10.00390625 24.0625 C9.59213135 23.42183594 9.18035645 22.78117188 8.75610352 22.12109375 C7.23809893 20.20237529 7.23809893 20.20237529 3.375 19.625 C3.375 33.815 3.375 48.005 3.375 62.625 C0.735 62.625 -1.905 62.625 -4.625 62.625 C-6.38018106 60.86981894 -5.75260783 58.40150285 -5.75439453 56.01953125 C-5.75754669 54.82158936 -5.76069885 53.62364746 -5.76394653 52.3894043 C-5.7619223 51.08527588 -5.75989807 49.78114746 -5.7578125 48.4375 C-5.7584856 47.09610985 -5.75945568 45.75471981 -5.76071167 44.41333008 C-5.76218836 41.59878379 -5.76003504 38.78426918 -5.75537109 35.96972656 C-5.74967381 32.35459369 -5.75295297 28.73953505 -5.75894356 25.12440491 C-5.76254997 22.35355058 -5.76141022 19.58271398 -5.75881577 16.81185913 C-5.75782033 14.82810417 -5.76086741 12.84434853 -5.76394653 10.8605957 C-5.76079437 9.66265381 -5.75764221 8.46471191 -5.75439453 7.23046875 C-5.75359894 6.16981201 -5.75280334 5.10915527 -5.75198364 4.01635742 C-5.53626859 -0.04599102 -3.69906589 0.30173649 0 0 Z " fill="#C59660" transform="translate(611.625,732.375)"/>
<path d="M0 0 C0.99773437 0.02320313 1.99546875 0.04640625 3.0234375 0.0703125 C4.52777344 0.09738281 4.52777344 0.09738281 6.0625 0.125 C6.83335937 0.14820313 7.60421875 0.17140625 8.3984375 0.1953125 C11.14405434 7.68574704 13.88273811 15.17866408 16.61261749 22.67484665 C17.880439 26.15557824 19.15062717 29.6354075 20.42626953 33.11328125 C21.65733974 36.46990568 22.88213302 39.8287591 24.10261536 43.18924713 C24.56925318 44.470668 25.03814352 45.75127092 25.50932312 47.03102875 C26.16908133 48.82416646 26.82008612 50.62051751 27.47070312 52.41699219 C27.84376587 53.43847351 28.21682861 54.45995483 28.60119629 55.51239014 C29.3984375 58.1953125 29.3984375 58.1953125 29.3984375 62.1953125 C25.7684375 62.1953125 22.1384375 62.1953125 18.3984375 62.1953125 C16.7484375 57.2453125 15.0984375 52.2953125 13.3984375 47.1953125 C5.4784375 46.8653125 -2.4415625 46.5353125 -10.6015625 46.1953125 C-11.5915625 49.4953125 -12.5815625 52.7953125 -13.6015625 56.1953125 C-14.54524933 58.22249162 -15.52000747 60.23821293 -16.6015625 62.1953125 C-19.9015625 62.1953125 -23.2015625 62.1953125 -26.6015625 62.1953125 C-26.03575811 56.14217664 -24.20255248 51.0699549 -21.92578125 45.45703125 C-21.55935013 44.53622269 -21.19291901 43.61541412 -20.81538391 42.66670227 C-19.64712447 39.7358096 -18.46829458 36.8093052 -17.2890625 33.8828125 C-16.50775935 31.92801568 -15.72715361 29.97293997 -14.94726562 28.01757812 C-13.17407321 23.57606254 -11.39643662 19.13641013 -9.6043396 14.70248413 C-8.90073649 12.94331575 -8.20995043 11.17899256 -7.52871704 9.41104126 C-7.17997528 8.51203094 -6.83123352 7.61302063 -6.47192383 6.68676758 C-6.16064041 5.87331375 -5.84935699 5.05985992 -5.52864075 4.22175598 C-4.15354097 1.21600972 -3.3535901 0.25177103 0 0 Z " fill="#C69862" transform="translate(320.6015625,732.8046875)"/>
<path d="M0 0 C1.77206945 0.08044414 3.5437602 0.17736708 5.3125 0.3125 C7.98952511 7.69292955 10.6578631 15.07645816 13.3203125 22.4621582 C14.22560349 24.97222807 15.13405746 27.48108724 16.04394531 29.98950195 C17.35481277 33.60442691 18.65853033 37.22186339 19.9609375 40.83984375 C20.56885635 42.50913185 20.56885635 42.50913185 21.1890564 44.21214294 C23.33938282 50.20896064 25.08870521 56.05850642 26.3125 62.3125 C22.6825 62.3125 19.0525 62.3125 15.3125 62.3125 C12.74765269 56.83305347 11.67619909 52.44914591 10.3125 46.3125 C2.3925 46.3125 -5.5275 46.3125 -13.6875 46.3125 C-14.6775 49.6125 -15.6675 52.9125 -16.6875 56.3125 C-18.3125 59.9375 -18.3125 59.9375 -20.6875 62.3125 C-23.76521246 62.80237811 -26.60151085 62.60786122 -29.6875 62.3125 C-28.31628732 55.21992633 -26.12515342 48.80609518 -23.44140625 42.109375 C-23.02962631 41.06855774 -22.61784637 40.02774048 -22.19358826 38.9553833 C-21.32688012 36.76909805 -20.45687564 34.58411697 -19.58374023 32.40039062 C-18.24976668 29.06191608 -16.92784229 25.71885493 -15.60742188 22.375 C-14.76112476 20.24451025 -13.91414311 18.11429227 -13.06640625 15.984375 C-12.67256241 14.98847351 -12.27871857 13.99257202 -11.87294006 12.9664917 C-11.14691824 11.15670497 -10.4029558 9.35395214 -9.63650513 7.56091309 C-8.88662862 5.78428186 -8.2269293 3.96960875 -7.60131836 2.14550781 C-5.02663431 -0.32046078 -3.51124201 0.02545483 0 0 Z " fill="#C69862" transform="translate(564.6875,732.6875)"/>
<path d="M0 0 C1.70703125 1.51171875 1.70703125 1.51171875 3 3 C3.0625 4.9375 3.0625 4.9375 2 7 C-1.0625 9.25 -1.0625 9.25 -4 11 C-4.763125 10.360625 -5.52625 9.72125 -6.3125 9.0625 C-11.40632641 5.15328439 -16.81562205 5.39932854 -23 6 C-28.92399285 7.74235084 -32.574416 10.96237647 -36 16 C-39.02336503 22.04673007 -39.15208321 29.95461692 -37.3125 36.4140625 C-35.20444716 41.10448007 -32.60670265 43.54962625 -28 46 C-22.35221116 47.88259628 -16.99331268 47.77711174 -11.5625 45.25 C-8.44851145 43.66469674 -7.23203604 42.27778892 -6 39 C-5.67 37.02 -5.34 35.04 -5 33 C-9.95 33 -14.9 33 -20 33 C-20 30.03 -20 27.06 -20 24 C-11.42 24 -2.84 24 6 24 C6.79822845 41.56102585 6.79822845 41.56102585 1 49 C-6.25213911 55.87876165 -13.71931219 58.37740248 -23.640625 58.2109375 C-31.14033732 57.54043342 -37.70724771 54.3389772 -43 49 C-45.02275693 46.13528333 -46.56318515 43.19356823 -48 40 C-48.6496875 38.6078125 -48.6496875 38.6078125 -49.3125 37.1875 C-51.46820074 27.19288746 -49.95403913 18.89962246 -45 10 C-40.17576328 2.55689192 -32.74840483 -2.68695135 -24.05859375 -4.671875 C-15.31297268 -5.61010255 -7.47341281 -4.70548214 0 0 Z " fill="#C59760" transform="translate(722,737)"/>
<path d="M0 0 C3.79594856 -0.54710291 7.21802003 -0.71962674 11 0 C13.94273585 2.42381591 15.30211184 5.63423685 17 9 C17.77949555 10.39064456 18.56654363 11.77707129 19.359375 13.16015625 C21.60873837 17.08758837 23.81233197 21.03789013 26 25 C28.73180902 21.92509648 30.74298372 18.74815516 32.6640625 15.13671875 C33.14746094 14.25048828 33.63085938 13.36425781 34.12890625 12.45117188 C35.1292685 10.60324422 36.10326096 8.74080537 37.05078125 6.86523438 C38.53145375 4.2128486 39.79675982 2.09655818 42 0 C45.47519797 -0.79744881 48.5049347 -0.6062691 52 0 C51.35826651 3.20912128 50.21637142 5.58716125 48.5234375 8.37890625 C47.76897339 9.62728271 47.76897339 9.62728271 46.99926758 10.90087891 C46.46325928 11.77921387 45.92725098 12.65754883 45.375 13.5625 C44.83319092 14.47435059 44.29138184 15.38620117 43.7331543 16.32568359 C41.0044801 20.88528636 38.18840053 25.01612733 34.8125 29.125 C32.4805869 33.33434306 31.59577417 36.64866071 31.359375 41.44140625 C31.29903076 42.62524902 31.23868652 43.8090918 31.17651367 45.02880859 C31.01057189 50.35386976 30.95355271 55.67267265 31 61 C29.35425434 61.02688151 27.70838587 61.04634123 26.0625 61.0625 C25.14597656 61.07410156 24.22945313 61.08570313 23.28515625 61.09765625 C21 61 21 61 20 60 C19.95163508 58.3327326 19.96342239 56.66366139 20 54.99609375 C20.06744762 41.56364156 19.17001507 31.9546471 11.34082031 20.91210938 C9.38615433 18.12461047 7.59371286 15.24212519 5.79272461 12.35375977 C4.90812289 10.9397675 4.01098433 9.53351969 3.09985352 8.13647461 C0 3.32809861 0 3.32809861 0 0 Z " fill="#C59660" transform="translate(421,733)"/>
<path d="M0 0 C7 0 7 0 10 2 C10.36076355 4.13870239 10.36076355 4.13870239 10.34057617 6.81689453 C10.34034958 7.81778107 10.34012299 8.8186676 10.33988953 9.84988403 C10.32440567 10.93325043 10.30892181 12.01661682 10.29296875 13.1328125 C10.28872391 14.23978485 10.28447906 15.3467572 10.28010559 16.48727417 C10.26327214 20.0334271 10.2256108 23.57901797 10.1875 27.125 C10.17245922 29.52473139 10.15876977 31.92447167 10.14648438 34.32421875 C10.1159014 40.21653816 10.05718684 46.10763774 10 52 C19.24 52 28.48 52 38 52 C38 55.3 38 58.6 38 62 C25.46 62 12.92 62 0 62 C0 41.54 0 21.08 0 0 Z " fill="#C59760" transform="translate(486,733)"/>
<path d="M0 0 C2.7225 -0.04125 5.445 -0.0825 8.25 -0.125 C9.10110352 -0.14320801 9.95220703 -0.16141602 10.82910156 -0.18017578 C18.01291116 -0.23292284 18.01291116 -0.23292284 21 2 C23.4915904 5.7373856 23.45793285 7.57331583 23 12 C20.86320715 15.38939556 19.8225233 16.72582557 16 18 C13.25917841 18.07056698 10.55153023 18.09336154 7.8125 18.0625 C5.234375 18.041875 2.65625 18.02125 0 18 C0 12.06 0 6.12 0 0 Z " fill="#FDFCFB" transform="translate(376,768)"/>
<path d="M0 0 C3.58875 -0.061875 3.58875 -0.061875 7.25 -0.125 C7.99668945 -0.14320801 8.74337891 -0.16141602 9.51269531 -0.18017578 C13.18436163 -0.21078946 15.93695629 -0.11710374 19 2 C21.3020949 5.22293286 21.47510654 8.11996324 21 12 C18.84909549 15.33761045 17.79587201 16.73470933 14 18 C9.33032246 18.13590447 4.67262015 18.04286807 0 18 C0 12.06 0 6.12 0 0 Z " fill="#FDFCFB" transform="translate(376,742)"/>
<path d="M0 0 C2.11340464 2.11340464 2.58435125 3.24985646 3.5078125 6.02734375 C3.90419922 7.21553711 3.90419922 7.21553711 4.30859375 8.42773438 C4.57800781 9.25595703 4.84742188 10.08417969 5.125 10.9375 C5.40214844 11.76185547 5.67929687 12.58621094 5.96484375 13.43554688 C8 19.60618073 8 19.60618073 8 23 C2.72 23 -2.56 23 -8 23 C-4.5625 4.5625 -4.5625 4.5625 0 0 Z " fill="#FCFBF9" transform="translate(322,746)"/>
<path d="M0 0 C2 1 2 1 2.77783203 2.81005859 C3.01872559 3.58172363 3.25961914 4.35338867 3.5078125 5.1484375 C3.77207031 5.98890625 4.03632812 6.829375 4.30859375 7.6953125 C4.57800781 8.57960938 4.84742188 9.46390625 5.125 10.375 C5.40214844 11.2515625 5.67929687 12.128125 5.96484375 13.03125 C8 19.58786176 8 19.58786176 8 23 C2.72 23 -2.56 23 -8 23 C-5.99307639 14.97230556 -3.3411405 7.56708897 0 0 Z " fill="#FCFAF8" transform="translate(563,746)"/>
<path d="M0 0 C0.33 0.66 0.66 1.32 1 2 C0.67 2.99 0.34 3.98 0 5 C2.64 5 5.28 5 8 5 C7.67 5.66 7.34 6.32 7 7 C4.03 7 1.06 7 -2 7 C-1.125 1.125 -1.125 1.125 0 0 Z " fill="#C18E53" transform="translate(537,788)"/>
</svg>
