<svg width="200" height="40" viewBox="0 0 200 40" fill="none" xmlns="http://www.w3.org/2000/svg">
  <g clip-path="url(#clip0_105_2)">
    <path d="M25.8 10.3C27.9 10.3 29.6 10.9 30.9 12.1C32.2 13.3 32.8 14.9 32.8 16.9C32.8 18.9 32.2 20.5 30.9 21.7C29.6 22.9 27.9 23.5 25.8 23.5C23.7 23.5 22 22.9 20.7 21.7C19.4 20.5 18.8 18.9 18.8 16.9C18.8 14.9 19.4 13.3 20.7 12.1C22 10.9 23.7 10.3 25.8 10.3ZM25.8 33C29.3 33 32.3 32.1 34.8 30.3C37.3 28.5 38.5 26 38.5 22.8V10.8H33.3V22.5C33.3 23.7 32.9 24.8 32.1 25.8C31.3 26.8 30.1 27.3 28.5 27.3C27.3 27.3 26.3 27 25.5 26.4C24.7 25.8 24.1 25.1 23.7 24.3L23.4 23.1H23.2C22.4 24.7 21.2 26 19.6 26.9C18 27.8 16.3 28.2 14.5 28.2C11.1 28.2 8.3 27.1 6.1 24.9C3.9 22.7 2.8 19.9 2.8 16.5C2.8 13.1 3.9 10.3 6.1 8.1C8.3 5.9 11.1 4.8 14.5 4.8C16.3 4.8 18 5.2 19.6 6.1C21.2 7 22.4 8.3 23.2 9.9H23.4L23.7 8.7C24.1 7.9 24.7 7.2 25.5 6.6C26.3 6 27.3 5.7 28.5 5.7H33.3V10.8H38.5V4.3H65.8V10.8H71V4.3H75.8V30.8H71V25.3H65.8V30.8H61V4.3H56.2V30.8H51.4V4.3H46.6V30.8H41.8V4.3H38.5V7.5C38.5 6.4 38.2 5.5 37.6 4.8C37 4.1 36.3 3.5 35.4 3.1C34.5 2.7 33.6 2.4 32.5 2.2C31.4 2 30.3 1.9 29.1 1.9C26.1 1.9 23.5 2.7 21.3 4.3C19.1 5.9 17.5 8 16.5 10.6L14.5 10.1C13.9 9.9 13.4 9.8 12.8 9.8C11.1 9.8 9.7 10.5 8.6 11.9C7.5 13.3 6.9 14.9 6.9 16.7C6.9 18.5 7.5 20.1 8.6 21.5C9.7 22.9 11.1 23.6 12.8 23.6C13.4 23.6 13.9 23.5 14.5 23.3L16.5 22.8C17.5 25.4 19.1 27.5 21.3 29.1C23.5 30.7 26.1 31.5 29.1 31.5C30.3 31.5 31.4 31.4 32.5 31.2C33.6 31 34.5 30.7 35.4 30.3C36.3 29.9 37 29.3 37.6 28.6C38.2 27.9 38.5 27 38.5 25.9V30.8H25.8V33Z" fill="currentColor"/>
    <path d="M78.4 4.3H83.2V30.8H78.4V4.3Z" fill="currentColor"/>
    <path d="M85.8 4.3H102.3C105.4 4.3 107.9 4.9 109.8 6.1C111.7 7.3 113.1 8.9 114 10.9C114.9 12.9 115.4 15.1 115.4 17.5C115.4 19.9 114.9 22.1 114 24.1C113.1 26.1 111.7 27.7 109.8 28.9C107.9 30.1 105.4 30.7 102.3 30.7H90.6V25.3H101.9C103.5 25.3 104.9 25 106.1 24.4C107.3 23.8 108.2 23 108.8 22C109.4 21 109.7 19.8 109.7 18.4V16.6C109.7 15.2 109.4 14 108.8 13C108.2 12 107.3 11.2 106.1 10.6C104.9 10 103.5 9.7 101.9 9.7H90.6V4.3H85.8V30.8H90.6V33H102.3C106.2 33 109.5 32.2 112.2 30.6C114.9 29 116.2 26.6 116.2 23.4C116.2 21.4 115.8 19.5 115 17.7C114.2 15.9 113.1 14.3 111.7 12.9C110.3 11.5 108.6 10.4 106.6 9.6C104.6 8.8 102.3 8.4 99.7 8.4H90.6V15.1H96.4V19.9H90.6V22.2H99.7C101.5 22.2 103.1 21.9 104.5 21.3C105.9 20.7 107.1 19.9 108.1 18.9C109.1 17.9 109.8 16.7 110.2 15.3C110.6 13.9 110.8 12.3 110.8 10.5V8.6H107V10.5C107 11.7 106.7 12.8 106.1 13.8C105.5 14.8 104.6 15.6 103.4 16.2C102.2 16.8 100.8 17.1 99.2 17.1H85.8V4.3Z" fill="currentColor"/>
    <path d="M118.8 4.3H123.6V30.8H118.8V4.3Z" fill="currentColor"/>
    <path d="M141.9 10.3C144 10.3 145.7 10.9 147 12.1C148.3 13.3 148.9 14.9 148.9 16.9C148.9 18.9 148.3 20.5 147 21.7C145.7 22.9 144 23.5 141.9 23.5C139.8 23.5 138.1 22.9 136.8 21.7C135.5 20.5 134.9 18.9 134.9 16.9C134.9 14.9 135.5 13.3 136.8 12.1C138.1 10.9 139.8 10.3 141.9 10.3ZM126.4 4.3H131.2V30.8H126.4V4.3ZM141.9 33C145.4 33 148.4 32.1 150.9 30.3C153.4 28.5 154.6 26 154.6 22.8V4.3H149.8V22.5C149.8 23.7 149.4 24.8 148.6 25.8C147.8 26.8 146.6 27.3 145 27.3C143.8 27.3 142.8 27 142 26.4C141.2 25.8 140.6 25.1 140.2 24.3L139.9 23.1H139.7C138.9 24.7 137.7 26 136.1 26.9C134.5 27.8 132.8 28.2 131 28.2C127.6 28.2 124.8 27.1 122.6 24.9C120.4 22.7 119.3 19.9 119.3 16.5C119.3 13.1 120.4 10.3 122.6 8.1C124.8 5.9 127.6 4.8 131 4.8C132.8 4.8 134.5 5.2 136.1 6.1C137.7 7 138.9 8.3 139.7 9.9H139.9L140.2 8.7C140.6 7.9 141.2 7.2 142 6.6C142.8 6 143.8 5.7 145 5.7C146.7 5.7 148.1 6.4 149.2 7.8C150.3 9.2 150.8 10.8 150.8 12.6C150.8 14.4 150.3 16 149.2 17.4C148.1 18.8 146.7 19.5 145 19.5C143.4 19.5 142 18.8 140.9 17.4C139.8 16 139.3 14.4 139.3 12.6C139.3 10.8 139.8 9.2 140.9 7.8C142 6.4 143.4 5.7 145 5.7H149.8V10.8H154.6V7.5C154.6 6.4 154.3 5.5 153.7 4.8C153.1 4.1 152.4 3.5 151.5 3.1C150.6 2.7 149.7 2.4 148.6 2.2C147.5 2 146.4 1.9 145.2 1.9C142.2 1.9 139.6 2.7 137.4 4.3C135.2 5.9 133.6 8 132.6 10.6L130.6 10.1C130 9.9 129.5 9.8 128.9 9.8C127.2 9.8 125.8 10.5 124.7 11.9C123.6 13.3 123 14.9 123 16.7C123 18.5 123.6 20.1 124.7 21.5C125.8 22.9 127.2 23.6 128.9 23.6C129.5 23.6 130 23.5 130.6 23.3L132.6 22.8C133.6 25.4 135.2 27.5 137.4 29.1C139.6 30.7 142.2 31.5 145.2 31.5C146.4 31.5 147.5 31.4 148.6 31.2C149.7 31 150.6 30.7 151.5 30.3C152.4 29.9 153.1 29.3 153.7 28.6C154.3 27.9 154.6 27 154.6 25.9V30.8H141.9V33Z" fill="currentColor"/>
    <path d="M157.2 4.3H174.9V9.7H162V15.1H173.9V20.5H162V25.3H175.7V30.7H157.2V4.3Z" fill="currentColor"/>
    <path d="M198.1 20.5L191.2 4.3H185.4L178.5 20.5V30.8H183.3V20.9L186.8 12.3H187.4L190.9 20.9V30.8H195.7V20.5H198.1V17.4C198.1 15.6 197.8 14 197.2 12.6C196.6 11.2 195.7 10.1 194.5 9.3C193.3 8.5 191.8 8.1 190 8.1C188.2 8.1 186.7 8.5 185.5 9.3C184.3 10.1 183.4 11.2 182.8 12.6C182.2 14 181.9 15.6 181.9 17.4V20.5H183.3V17.6C183.3 16.2 183.5 15 183.9 14C184.3 13 184.9 12.2 185.7 11.6C186.5 11 187.5 10.7 188.7 10.7C189.9 10.7 190.9 11 191.7 11.6C192.5 12.2 193.1 13 193.5 14C193.9 15 194.1 16.2 194.1 17.6V20.5H195.7V17.4C195.7 15.6 195.4 14 194.8 12.6C194.2 11.2 193.3 10.1 192.1 9.3C190.9 8.5 189.4 8.1 187.6 8.1C185.8 8.1 184.3 8.5 183.1 9.3C181.9 10.1 181 11.2 180.4 12.6C179.8 14 179.5 15.6 179.5 17.4V30.8H181.9V17.6C181.9 16.2 182.1 15 182.5 14C182.9 13 183.5 12.2 184.3 11.6C185.1 11 186.1 10.7 187.3 10.7C188.5 10.7 189.5 11 190.3 11.6C191.1 12.2 191.7 13 192.1 14C192.5 15 192.7 16.2 192.7 17.6V30.8H195.1V17.4C195.1 15.6 194.8 14 194.2 12.6C193.6 11.2 192.7 10.1 191.5 9.3C190.3 8.5 188.8 8.1 187 8.1C185.2 8.1 183.7 8.5 182.5 9.3C181.3 10.1 180.4 11.2 179.8 12.6C179.2 14 178.9 15.6 178.9 17.4V30.8H181.3V17.6C181.3 16.2 181.5 15 181.9 14C182.3 13 182.9 12.2 183.7 11.6C184.5 11 185.5 10.7 186.7 10.7C187.9 10.7 188.9 11 189.7 11.6C190.5 12.2 191.1 13 191.5 14C191.9 15 192.1 16.2 192.1 17.6V30.8H194.5V20.5Z" fill="currentColor"/>
  </g>
  <defs>
    <clipPath id="clip0_105_2">
      <rect width="200" height="40" fill="white"/>
    </clipPath>
  </defs>
</svg>